<svg xmlns="http://www.w3.org/2000/svg" width="900" height="1600" viewBox="0 0 900 1600" fill="none">
<circle cx="0" cy="0" r="1" fill="#D8BB85" opacity="0.15"/>
<circle cx="137" cy="211" r="2" fill="#D8BB85" opacity="0.2"/>
<circle cx="274" cy="422" r="3" fill="#D8BB85" opacity="0.25"/>
<circle cx="411" cy="633" r="4" fill="#D8BB85" opacity="0.30000000000000004"/>
<circle cx="548" cy="844" r="1" fill="#D8BB85" opacity="0.35"/>
<circle cx="685" cy="1055" r="2" fill="#D8BB85" opacity="0.15"/>
<circle cx="822" cy="1266" r="3" fill="#D8BB85" opacity="0.2"/>
<circle cx="59" cy="1477" r="4" fill="#D8BB85" opacity="0.25"/>
<circle cx="196" cy="88" r="1" fill="#D8BB85" opacity="0.30000000000000004"/>
<circle cx="333" cy="299" r="2" fill="#D8BB85" opacity="0.35"/>
<circle cx="470" cy="510" r="3" fill="#D8BB85" opacity="0.15"/>
<circle cx="607" cy="721" r="4" fill="#D8BB85" opacity="0.2"/>
<circle cx="744" cy="932" r="1" fill="#D8BB85" opacity="0.25"/>
<circle cx="881" cy="1143" r="2" fill="#D8BB85" opacity="0.30000000000000004"/>
<circle cx="118" cy="1354" r="3" fill="#D8BB85" opacity="0.35"/>
<circle cx="255" cy="1565" r="4" fill="#D8BB85" opacity="0.15"/>
<circle cx="392" cy="176" r="1" fill="#D8BB85" opacity="0.2"/>
<circle cx="529" cy="387" r="2" fill="#D8BB85" opacity="0.25"/>
<circle cx="666" cy="598" r="3" fill="#D8BB85" opacity="0.30000000000000004"/>
<circle cx="803" cy="809" r="4" fill="#D8BB85" opacity="0.35"/>
<circle cx="40" cy="1020" r="1" fill="#D8BB85" opacity="0.15"/>
<circle cx="177" cy="1231" r="2" fill="#D8BB85" opacity="0.2"/>
<circle cx="314" cy="1442" r="3" fill="#D8BB85" opacity="0.25"/>
<circle cx="451" cy="53" r="4" fill="#D8BB85" opacity="0.30000000000000004"/>
<circle cx="588" cy="264" r="1" fill="#D8BB85" opacity="0.35"/>
<circle cx="725" cy="475" r="2" fill="#D8BB85" opacity="0.15"/>
<circle cx="862" cy="686" r="3" fill="#D8BB85" opacity="0.2"/>
<circle cx="99" cy="897" r="4" fill="#D8BB85" opacity="0.25"/>
<circle cx="236" cy="1108" r="1" fill="#D8BB85" opacity="0.30000000000000004"/>
<circle cx="373" cy="1319" r="2" fill="#D8BB85" opacity="0.35"/>
<circle cx="510" cy="1530" r="3" fill="#D8BB85" opacity="0.15"/>
<circle cx="647" cy="141" r="4" fill="#D8BB85" opacity="0.2"/>
<circle cx="784" cy="352" r="1" fill="#D8BB85" opacity="0.25"/>
<circle cx="21" cy="563" r="2" fill="#D8BB85" opacity="0.30000000000000004"/>
<circle cx="158" cy="774" r="3" fill="#D8BB85" opacity="0.35"/>
<circle cx="295" cy="985" r="4" fill="#D8BB85" opacity="0.15"/>
<circle cx="432" cy="1196" r="1" fill="#D8BB85" opacity="0.2"/>
<circle cx="569" cy="1407" r="2" fill="#D8BB85" opacity="0.25"/>
<circle cx="706" cy="18" r="3" fill="#D8BB85" opacity="0.30000000000000004"/>
<circle cx="843" cy="229" r="4" fill="#D8BB85" opacity="0.35"/>
<circle cx="80" cy="440" r="1" fill="#D8BB85" opacity="0.15"/>
<circle cx="217" cy="651" r="2" fill="#D8BB85" opacity="0.2"/>
<circle cx="354" cy="862" r="3" fill="#D8BB85" opacity="0.25"/>
<circle cx="491" cy="1073" r="4" fill="#D8BB85" opacity="0.30000000000000004"/>
<circle cx="628" cy="1284" r="1" fill="#D8BB85" opacity="0.35"/>
<circle cx="765" cy="1495" r="2" fill="#D8BB85" opacity="0.15"/>
<circle cx="2" cy="106" r="3" fill="#D8BB85" opacity="0.2"/>
<circle cx="139" cy="317" r="4" fill="#D8BB85" opacity="0.25"/>
<circle cx="276" cy="528" r="1" fill="#D8BB85" opacity="0.30000000000000004"/>
<circle cx="413" cy="739" r="2" fill="#D8BB85" opacity="0.35"/>
<circle cx="550" cy="950" r="3" fill="#D8BB85" opacity="0.15"/>
<circle cx="687" cy="1161" r="4" fill="#D8BB85" opacity="0.2"/>
<circle cx="824" cy="1372" r="1" fill="#D8BB85" opacity="0.25"/>
<circle cx="61" cy="1583" r="2" fill="#D8BB85" opacity="0.30000000000000004"/>
<circle cx="198" cy="194" r="3" fill="#D8BB85" opacity="0.35"/>
<circle cx="335" cy="405" r="4" fill="#D8BB85" opacity="0.15"/>
<circle cx="472" cy="616" r="1" fill="#D8BB85" opacity="0.2"/>
<circle cx="609" cy="827" r="2" fill="#D8BB85" opacity="0.25"/>
<circle cx="746" cy="1038" r="3" fill="#D8BB85" opacity="0.30000000000000004"/>
<circle cx="883" cy="1249" r="4" fill="#D8BB85" opacity="0.35"/>
<circle cx="120" cy="1460" r="1" fill="#D8BB85" opacity="0.15"/>
<circle cx="257" cy="71" r="2" fill="#D8BB85" opacity="0.2"/>
<circle cx="394" cy="282" r="3" fill="#D8BB85" opacity="0.25"/>
<circle cx="531" cy="493" r="4" fill="#D8BB85" opacity="0.30000000000000004"/>
<circle cx="668" cy="704" r="1" fill="#D8BB85" opacity="0.35"/>
<circle cx="805" cy="915" r="2" fill="#D8BB85" opacity="0.15"/>
<circle cx="42" cy="1126" r="3" fill="#D8BB85" opacity="0.2"/>
<circle cx="179" cy="1337" r="4" fill="#D8BB85" opacity="0.25"/>
<circle cx="316" cy="1548" r="1" fill="#D8BB85" opacity="0.30000000000000004"/>
<circle cx="453" cy="159" r="2" fill="#D8BB85" opacity="0.35"/>
<circle cx="590" cy="370" r="3" fill="#D8BB85" opacity="0.15"/>
<circle cx="727" cy="581" r="4" fill="#D8BB85" opacity="0.2"/>
<circle cx="864" cy="792" r="1" fill="#D8BB85" opacity="0.25"/>
<circle cx="101" cy="1003" r="2" fill="#D8BB85" opacity="0.30000000000000004"/>
<circle cx="238" cy="1214" r="3" fill="#D8BB85" opacity="0.35"/>
<circle cx="375" cy="1425" r="4" fill="#D8BB85" opacity="0.15"/>
<circle cx="512" cy="36" r="1" fill="#D8BB85" opacity="0.2"/>
<circle cx="649" cy="247" r="2" fill="#D8BB85" opacity="0.25"/>
<circle cx="786" cy="458" r="3" fill="#D8BB85" opacity="0.30000000000000004"/>
<circle cx="23" cy="669" r="4" fill="#D8BB85" opacity="0.35"/>
</svg>
