<svg xmlns="http://www.w3.org/2000/svg" width="900" height="600" viewBox="0 0 900 600" fill="none">
<path d="M80 80 l4 10 l10 4 l-10 4 l-4 10 l-4-10 l-10-4 l10-4z" fill="#D8BB85" opacity=".38"/>
<path d="M220 135 l4 10 l10 4 l-10 4 l-4 10 l-4-10 l-10-4 l10-4z" fill="#D8BB85" opacity=".38"/>
<path d="M580 90 l4 10 l10 4 l-10 4 l-4 10 l-4-10 l-10-4 l10-4z" fill="#D8BB85" opacity=".38"/>
<path d="M740 180 l4 10 l10 4 l-10 4 l-4 10 l-4-10 l-10-4 l10-4z" fill="#D8BB85" opacity=".38"/>
<path d="M430 260 l4 10 l10 4 l-10 4 l-4 10 l-4-10 l-10-4 l10-4z" fill="#D8BB85" opacity=".38"/>
<path d="M170 390 l4 10 l10 4 l-10 4 l-4 10 l-4-10 l-10-4 l10-4z" fill="#D8BB85" opacity=".38"/>
<path d="M680 420 l4 10 l10 4 l-10 4 l-4 10 l-4-10 l-10-4 l10-4z" fill="#D8BB85" opacity=".38"/>
</svg>
