<svg xmlns="http://www.w3.org/2000/svg" width="320" height="320" viewBox="0 0 320 320" fill="none">

<rect width="320" height="320" fill="#5A3B2E"/>
<ellipse cx="40" cy="40" rx="34" ry="18" fill="none" stroke="#D8BB85" stroke-width="4" opacity=".65" transform="rotate(45 40 40)"/><ellipse cx="40" cy="40" rx="34" ry="18" fill="none" stroke="#D8BB85" stroke-width="4" opacity=".65" transform="rotate(-45 40 40)"/><ellipse cx="40" cy="120" rx="34" ry="18" fill="none" stroke="#D8BB85" stroke-width="4" opacity=".65" transform="rotate(45 40 120)"/><ellipse cx="40" cy="120" rx="34" ry="18" fill="none" stroke="#D8BB85" stroke-width="4" opacity=".65" transform="rotate(-45 40 120)"/><ellipse cx="40" cy="200" rx="34" ry="18" fill="none" stroke="#D8BB85" stroke-width="4" opacity=".65" transform="rotate(45 40 200)"/><ellipse cx="40" cy="200" rx="34" ry="18" fill="none" stroke="#D8BB85" stroke-width="4" opacity=".65" transform="rotate(-45 40 200)"/><ellipse cx="40" cy="280" rx="34" ry="18" fill="none" stroke="#D8BB85" stroke-width="4" opacity=".65" transform="rotate(45 40 280)"/><ellipse cx="40" cy="280" rx="34" ry="18" fill="none" stroke="#D8BB85" stroke-width="4" opacity=".65" transform="rotate(-45 40 280)"/><ellipse cx="120" cy="40" rx="34" ry="18" fill="none" stroke="#D8BB85" stroke-width="4" opacity=".65" transform="rotate(45 120 40)"/><ellipse cx="120" cy="40" rx="34" ry="18" fill="none" stroke="#D8BB85" stroke-width="4" opacity=".65" transform="rotate(-45 120 40)"/><ellipse cx="120" cy="120" rx="34" ry="18" fill="none" stroke="#D8BB85" stroke-width="4" opacity=".65" transform="rotate(45 120 120)"/><ellipse cx="120" cy="120" rx="34" ry="18" fill="none" stroke="#D8BB85" stroke-width="4" opacity=".65" transform="rotate(-45 120 120)"/><ellipse cx="120" cy="200" rx="34" ry="18" fill="none" stroke="#D8BB85" stroke-width="4" opacity=".65" transform="rotate(45 120 200)"/><ellipse cx="120" cy="200" rx="34" ry="18" fill="none" stroke="#D8BB85" stroke-width="4" opacity=".65" transform="rotate(-45 120 200)"/><ellipse cx="120" cy="280" rx="34" ry="18" fill="none" stroke="#D8BB85" stroke-width="4" opacity=".65" transform="rotate(45 120 280)"/><ellipse cx="120" cy="280" rx="34" ry="18" fill="none" stroke="#D8BB85" stroke-width="4" opacity=".65" transform="rotate(-45 120 280)"/><ellipse cx="200" cy="40" rx="34" ry="18" fill="none" stroke="#D8BB85" stroke-width="4" opacity=".65" transform="rotate(45 200 40)"/><ellipse cx="200" cy="40" rx="34" ry="18" fill="none" stroke="#D8BB85" stroke-width="4" opacity=".65" transform="rotate(-45 200 40)"/><ellipse cx="200" cy="120" rx="34" ry="18" fill="none" stroke="#D8BB85" stroke-width="4" opacity=".65" transform="rotate(45 200 120)"/><ellipse cx="200" cy="120" rx="34" ry="18" fill="none" stroke="#D8BB85" stroke-width="4" opacity=".65" transform="rotate(-45 200 120)"/><ellipse cx="200" cy="200" rx="34" ry="18" fill="none" stroke="#D8BB85" stroke-width="4" opacity=".65" transform="rotate(45 200 200)"/><ellipse cx="200" cy="200" rx="34" ry="18" fill="none" stroke="#D8BB85" stroke-width="4" opacity=".65" transform="rotate(-45 200 200)"/><ellipse cx="200" cy="280" rx="34" ry="18" fill="none" stroke="#D8BB85" stroke-width="4" opacity=".65" transform="rotate(45 200 280)"/><ellipse cx="200" cy="280" rx="34" ry="18" fill="none" stroke="#D8BB85" stroke-width="4" opacity=".65" transform="rotate(-45 200 280)"/><ellipse cx="280" cy="40" rx="34" ry="18" fill="none" stroke="#D8BB85" stroke-width="4" opacity=".65" transform="rotate(45 280 40)"/><ellipse cx="280" cy="40" rx="34" ry="18" fill="none" stroke="#D8BB85" stroke-width="4" opacity=".65" transform="rotate(-45 280 40)"/><ellipse cx="280" cy="120" rx="34" ry="18" fill="none" stroke="#D8BB85" stroke-width="4" opacity=".65" transform="rotate(45 280 120)"/><ellipse cx="280" cy="120" rx="34" ry="18" fill="none" stroke="#D8BB85" stroke-width="4" opacity=".65" transform="rotate(-45 280 120)"/><ellipse cx="280" cy="200" rx="34" ry="18" fill="none" stroke="#D8BB85" stroke-width="4" opacity=".65" transform="rotate(45 280 200)"/><ellipse cx="280" cy="200" rx="34" ry="18" fill="none" stroke="#D8BB85" stroke-width="4" opacity=".65" transform="rotate(-45 280 200)"/><ellipse cx="280" cy="280" rx="34" ry="18" fill="none" stroke="#D8BB85" stroke-width="4" opacity=".65" transform="rotate(45 280 280)"/><ellipse cx="280" cy="280" rx="34" ry="18" fill="none" stroke="#D8BB85" stroke-width="4" opacity=".65" transform="rotate(-45 280 280)"/>

</svg>
