<svg xmlns="http://www.w3.org/2000/svg" width="240" height="420" viewBox="0 0 240 420" fill="none">

<g fill="#2B1A12" opacity=".82"><circle cx="105" cy="80" r="35"/><path d="M100 110 C70 170 60 240 80 330 C120 310 150 310 180 340 C158 240 150 165 112 110Z"/><path d="M88 70 C40 75 40 45 75 30 C115 10 150 34 145 70Z"/><path d="M78 170 L22 240 L38 252 L93 195Z"/><path d="M142 175 L205 245 L190 258 L130 200Z"/><path d="M80 330 L50 410 H90 L105 340Z"/><path d="M160 330 L190 410 H150 L135 340Z"/></g>

</svg>
