<svg xmlns="http://www.w3.org/2000/svg" width="600" height="600" viewBox="0 0 600 600" fill="none">

<rect width="600" height="600" fill="#4B3024"/>
<g transform="translate(0 0)"><path d="M0 60 C40 0 80 0 120 60 C80 120 40 120 0 60Z" stroke="#B9976B" stroke-opacity=".45" stroke-width="4" fill="none"/><circle cx="60" cy="60" r="15" stroke="#D8BB85" stroke-opacity=".38" stroke-width="3"/></g><g transform="translate(120 0)"><path d="M0 60 C40 0 80 0 120 60 C80 120 40 120 0 60Z" stroke="#B9976B" stroke-opacity=".45" stroke-width="4" fill="none"/><circle cx="60" cy="60" r="15" stroke="#D8BB85" stroke-opacity=".38" stroke-width="3"/></g><g transform="translate(240 0)"><path d="M0 60 C40 0 80 0 120 60 C80 120 40 120 0 60Z" stroke="#B9976B" stroke-opacity=".45" stroke-width="4" fill="none"/><circle cx="60" cy="60" r="15" stroke="#D8BB85" stroke-opacity=".38" stroke-width="3"/></g><g transform="translate(360 0)"><path d="M0 60 C40 0 80 0 120 60 C80 120 40 120 0 60Z" stroke="#B9976B" stroke-opacity=".45" stroke-width="4" fill="none"/><circle cx="60" cy="60" r="15" stroke="#D8BB85" stroke-opacity=".38" stroke-width="3"/></g><g transform="translate(480 0)"><path d="M0 60 C40 0 80 0 120 60 C80 120 40 120 0 60Z" stroke="#B9976B" stroke-opacity=".45" stroke-width="4" fill="none"/><circle cx="60" cy="60" r="15" stroke="#D8BB85" stroke-opacity=".38" stroke-width="3"/></g>
<g transform="translate(60 120)"><path d="M0 60 C40 0 80 0 120 60 C80 120 40 120 0 60Z" stroke="#B9976B" stroke-opacity=".45" stroke-width="4" fill="none"/><circle cx="60" cy="60" r="15" stroke="#D8BB85" stroke-opacity=".38" stroke-width="3"/></g><g transform="translate(180 120)"><path d="M0 60 C40 0 80 0 120 60 C80 120 40 120 0 60Z" stroke="#B9976B" stroke-opacity=".45" stroke-width="4" fill="none"/><circle cx="60" cy="60" r="15" stroke="#D8BB85" stroke-opacity=".38" stroke-width="3"/></g><g transform="translate(300 120)"><path d="M0 60 C40 0 80 0 120 60 C80 120 40 120 0 60Z" stroke="#B9976B" stroke-opacity=".45" stroke-width="4" fill="none"/><circle cx="60" cy="60" r="15" stroke="#D8BB85" stroke-opacity=".38" stroke-width="3"/></g><g transform="translate(420 120)"><path d="M0 60 C40 0 80 0 120 60 C80 120 40 120 0 60Z" stroke="#B9976B" stroke-opacity=".45" stroke-width="4" fill="none"/><circle cx="60" cy="60" r="15" stroke="#D8BB85" stroke-opacity=".38" stroke-width="3"/></g>
<g transform="translate(0 240)"><path d="M0 60 C40 0 80 0 120 60 C80 120 40 120 0 60Z" stroke="#B9976B" stroke-opacity=".45" stroke-width="4" fill="none"/><circle cx="60" cy="60" r="15" stroke="#D8BB85" stroke-opacity=".38" stroke-width="3"/></g><g transform="translate(120 240)"><path d="M0 60 C40 0 80 0 120 60 C80 120 40 120 0 60Z" stroke="#B9976B" stroke-opacity=".45" stroke-width="4" fill="none"/><circle cx="60" cy="60" r="15" stroke="#D8BB85" stroke-opacity=".38" stroke-width="3"/></g><g transform="translate(240 240)"><path d="M0 60 C40 0 80 0 120 60 C80 120 40 120 0 60Z" stroke="#B9976B" stroke-opacity=".45" stroke-width="4" fill="none"/><circle cx="60" cy="60" r="15" stroke="#D8BB85" stroke-opacity=".38" stroke-width="3"/></g><g transform="translate(360 240)"><path d="M0 60 C40 0 80 0 120 60 C80 120 40 120 0 60Z" stroke="#B9976B" stroke-opacity=".45" stroke-width="4" fill="none"/><circle cx="60" cy="60" r="15" stroke="#D8BB85" stroke-opacity=".38" stroke-width="3"/></g><g transform="translate(480 240)"><path d="M0 60 C40 0 80 0 120 60 C80 120 40 120 0 60Z" stroke="#B9976B" stroke-opacity=".45" stroke-width="4" fill="none"/><circle cx="60" cy="60" r="15" stroke="#D8BB85" stroke-opacity=".38" stroke-width="3"/></g>
<g transform="translate(60 360)"><path d="M0 60 C40 0 80 0 120 60 C80 120 40 120 0 60Z" stroke="#B9976B" stroke-opacity=".45" stroke-width="4" fill="none"/><circle cx="60" cy="60" r="15" stroke="#D8BB85" stroke-opacity=".38" stroke-width="3"/></g><g transform="translate(180 360)"><path d="M0 60 C40 0 80 0 120 60 C80 120 40 120 0 60Z" stroke="#B9976B" stroke-opacity=".45" stroke-width="4" fill="none"/><circle cx="60" cy="60" r="15" stroke="#D8BB85" stroke-opacity=".38" stroke-width="3"/></g><g transform="translate(300 360)"><path d="M0 60 C40 0 80 0 120 60 C80 120 40 120 0 60Z" stroke="#B9976B" stroke-opacity=".45" stroke-width="4" fill="none"/><circle cx="60" cy="60" r="15" stroke="#D8BB85" stroke-opacity=".38" stroke-width="3"/></g><g transform="translate(420 360)"><path d="M0 60 C40 0 80 0 120 60 C80 120 40 120 0 60Z" stroke="#B9976B" stroke-opacity=".45" stroke-width="4" fill="none"/><circle cx="60" cy="60" r="15" stroke="#D8BB85" stroke-opacity=".38" stroke-width="3"/></g>
<g transform="translate(0 480)"><path d="M0 60 C40 0 80 0 120 60 C80 120 40 120 0 60Z" stroke="#B9976B" stroke-opacity=".45" stroke-width="4" fill="none"/><circle cx="60" cy="60" r="15" stroke="#D8BB85" stroke-opacity=".38" stroke-width="3"/></g><g transform="translate(120 480)"><path d="M0 60 C40 0 80 0 120 60 C80 120 40 120 0 60Z" stroke="#B9976B" stroke-opacity=".45" stroke-width="4" fill="none"/><circle cx="60" cy="60" r="15" stroke="#D8BB85" stroke-opacity=".38" stroke-width="3"/></g><g transform="translate(240 480)"><path d="M0 60 C40 0 80 0 120 60 C80 120 40 120 0 60Z" stroke="#B9976B" stroke-opacity=".45" stroke-width="4" fill="none"/><circle cx="60" cy="60" r="15" stroke="#D8BB85" stroke-opacity=".38" stroke-width="3"/></g><g transform="translate(360 480)"><path d="M0 60 C40 0 80 0 120 60 C80 120 40 120 0 60Z" stroke="#B9976B" stroke-opacity=".45" stroke-width="4" fill="none"/><circle cx="60" cy="60" r="15" stroke="#D8BB85" stroke-opacity=".38" stroke-width="3"/></g><g transform="translate(480 480)"><path d="M0 60 C40 0 80 0 120 60 C80 120 40 120 0 60Z" stroke="#B9976B" stroke-opacity=".45" stroke-width="4" fill="none"/><circle cx="60" cy="60" r="15" stroke="#D8BB85" stroke-opacity=".38" stroke-width="3"/></g>

</svg>
