<svg xmlns="http://www.w3.org/2000/svg" width="1200" height="420" viewBox="0 0 1200 420" fill="none">

<defs><linearGradient id="fade" x1="0" x2="0" y1="0" y2="1"><stop stop-color="#E8DFC9" stop-opacity=".02"/><stop offset="1" stop-color="#2B1A12" stop-opacity=".82"/></linearGradient></defs>
<rect width="1200" height="420" fill="none"/>
<path d="M0 300 C110 220 210 250 330 170 C450 80 550 180 650 125 C760 60 860 170 970 130 C1070 90 1140 130 1200 100 L1200 420 L0 420Z" fill="#2B1A12" opacity=".18"/>
<path d="M0 340 C160 260 250 300 420 230 C580 160 690 260 810 205 C930 150 1040 235 1200 190 L1200 420 L0 420Z" fill="#2B1A12" opacity=".28"/>
<path d="M380 310 L380 250 L430 220 L480 250 L480 310 Z" fill="#2B1A12" opacity=".55"/>
<path d="M360 250 L430 195 L500 250 Z" fill="#2B1A12" opacity=".62"/>
<rect x="395" y="270" width="18" height="40" fill="#E8DFC9" opacity=".25"/><rect x="450" y="270" width="18" height="40" fill="#E8DFC9" opacity=".25"/>
<path d="M90 330 C110 260 125 235 150 210 C135 250 130 290 130 350" stroke="#2B1A12" stroke-opacity=".58" stroke-width="14"/>
<path d="M150 210 C95 205 70 240 55 270 C100 248 128 245 150 210Z" fill="#2B1A12" opacity=".5"/><path d="M150 210 C180 215 210 245 225 275 C190 250 170 235 150 210Z" fill="#2B1A12" opacity=".5"/>
<path d="M0 360 C220 320 430 365 650 330 C840 300 1030 345 1200 320 L1200 420 L0 420Z" fill="#2B1A12" opacity=".7"/>

</svg>
