<svg xmlns="http://www.w3.org/2000/svg" width="600" height="160" viewBox="0 0 600 160" fill="none">
<path d="M20 60 c18 -18 34 -10 42 5 c-22 -8 -32 4 -42 -5 c-11 10 -24 8 -42 20 c12 -18 26 -34 42 -20Z" fill="#2B1A12" transform="scale(1.0)" opacity=".8"/>
<path d="M75 78 c18 -18 34 -10 42 5 c-22 -8 -32 4 -42 -5 c-11 10 -24 8 -42 20 c12 -18 26 -34 42 -20Z" fill="#2B1A12" transform="scale(1.22)" opacity=".8"/>
<path d="M130 96 c18 -18 34 -10 42 5 c-22 -8 -32 4 -42 -5 c-11 10 -24 8 -42 20 c12 -18 26 -34 42 -20Z" fill="#2B1A12" transform="scale(1.44)" opacity=".8"/>
<path d="M185 60 c18 -18 34 -10 42 5 c-22 -8 -32 4 -42 -5 c-11 10 -24 8 -42 20 c12 -18 26 -34 42 -20Z" fill="#2B1A12" transform="scale(1.0)" opacity=".8"/>
<path d="M240 78 c18 -18 34 -10 42 5 c-22 -8 -32 4 -42 -5 c-11 10 -24 8 -42 20 c12 -18 26 -34 42 -20Z" fill="#2B1A12" transform="scale(1.22)" opacity=".8"/>
<path d="M295 96 c18 -18 34 -10 42 5 c-22 -8 -32 4 -42 -5 c-11 10 -24 8 -42 20 c12 -18 26 -34 42 -20Z" fill="#2B1A12" transform="scale(1.44)" opacity=".8"/>
<path d="M350 60 c18 -18 34 -10 42 5 c-22 -8 -32 4 -42 -5 c-11 10 -24 8 -42 20 c12 -18 26 -34 42 -20Z" fill="#2B1A12" transform="scale(1.0)" opacity=".8"/>
</svg>
