<svg xmlns="http://www.w3.org/2000/svg" width="420" height="280" viewBox="0 0 420 280" fill="none">

<g fill="#2B1A12" opacity=".82"><path d="M70 170 C90 90 180 80 235 125 C285 102 330 118 350 160 C320 190 260 188 230 170 C180 210 110 205 70 170Z"/><path d="M338 145 L390 105 L385 170Z"/><circle cx="340" cy="136" r="9" fill="#D8BB85"/><path d="M110 184 L90 265 H122 L135 185Z"/><path d="M210 180 L205 265 H238 L235 176Z"/><path d="M270 175 L292 265 H324 L295 170Z"/><path d="M150 116 C140 58 190 45 225 74 C190 78 175 90 150 116Z"/></g>

</svg>
